:SAMPLES-PER-SECOND 30
:FULLY-SPECIFIED
:DEGREES
355
root  63.8147 39.1756 3.32414 62.0454 88.3034 59.4713
RightUpLeg  -14.3081 -2.19037 -3.87561
RightLeg  6.90618 23.726 -1.59404
RightFoot  4.58606 -0.676349 5.0548
RightToes  2.96859e-009 0 -3.6325e-017
Spine  18.806 -0.180392 6.49052
Spine1  11.912 3.39187 -8.56294
HEad  -28.4551 -3.52258 0.592642
LeftShoulder1  2.11481 -5.98715 -15.4901
LeftArm  -24.531 -75.9115 -26.1224
LeftForeArm  -16.8691 -4.67376 -4.63352
LeftHand  -0.160143 9.36322 -3.02772
RightShoulder  1.10173 3.06592 9.44527
RightArm  -27.8212 75.5665 20.6953
RightForeArm  -34.8293 -5.37998 2.57158
RightHand  0.116514 2.39127 1.5417
LeftUpLeg  -13.1177 4.71662 0.599682
LeftLeg  7.87859 -7.60768 -1.63021
LeftFoot  5.26218 -0.388401 2.44281
LeftToes  3.24686e-010 -7.02549e-012 1.39809e-011
356
root  63.9104 39.2 3.52808 76.376 88.5156 73.6299
RightUpLeg  -14.415 -2.15077 -3.66574
RightLeg  7.27252 23.1889 -1.27795
RightFoot  4.52389 -0.586743 4.43042
RightToes  2.96859e-009 0 -3.6325e-017
Spine  18.5056 -0.325286 7.10405
Spine1  12.4729 3.39465 -8.71533
HEad  -29.6534 -3.11557 -0.166947
LeftShoulder1  2.10878 -5.95275 -15.5095
LeftArm  -26.344 -76.2376 -24.0641
LeftForeArm  -15.5963 -4.7492 -4.58809
LeftHand  -0.157799 9.13313 -3.17361
RightShoulder  1.08033 3.16838 8.797
RightArm  -29.1009 75.2503 19.9568
RightForeArm  -34.6227 -5.30396 2.08948
RightHand  0.134075 2.48979 1.77605
LeftUpLeg  -13.1103 4.88305 0.949136
LeftLeg  7.64844 -8.32439 -1.71643
LeftFoot  5.42587 -0.291771 1.75515
LeftToes  3.24686e-010 -7.02549e-012 1.39809e-011
357
root  64.0099 39.2264 3.65727 91.0939 88.7561 88.352
RightUpLeg  -14.2904 -2.07391 -3.43162
RightLeg  7.52497 22.6117 -0.975231
RightFoot  4.58432 -0.464453 3.54479
RightToes  2.96859e-009 0 -3.6325e-017
Spine  18.1173 -0.776964 8.75457
Spine1  13.2086 3.60355 -10.0538
HEad  -30.4983 -2.90036 -0.608264
LeftShoulder1  2.10823 -5.83221 -15.8162
LeftArm  -27.7747 -76.8327 -22.4669
LeftForeArm  -14.8536 -4.59635 -4.57977
LeftHand  -0.167135 9.41023 -3.16857
RightShoulder  1.07686 3.27228 8.45813
RightArm  -30.589 74.6099 19.165
RightForeArm  -34.54 -5.19054 1.41763
RightHand  0.123185 1.87576 1.80785
LeftUpLeg  -12.8419 4.8377 1.2206
LeftLeg  7.33722 -8.76537 -1.50946
LeftFoot  5.51396 -0.211203 1.20019
LeftToes  3.24686e-010 -7.02549e-012 1.39809e-011
358
root  64.0413 39.2422 3.85904 105.193 88.6542 102.238
RightUpLeg  -14.5694 -1.74983 -3.22448
RightLeg  7.85845 21.9662 -0.858003
RightFoot  4.59926 -0.373175 2.88774
RightToes  2.96859e-009 0 -3.6325e-017
Spine  17.9445 -0.814601 9.31012
Spine1  13.5124 3.67276 -10.1087
HEad  -31.0223 -1.94538 -1.77626
LeftShoulder1  2.14486 -5.85482 -16.1841
LeftArm  -29.1383 -77.2477 -20.6272
LeftForeArm  -14.8322 -4.43072 -4.73842
LeftHand  -0.178231 9.33439 -3.55181
RightShoulder  1.05304 3.16984 8.33747
RightArm  -32.048 74.6833 16.3341
RightForeArm  -35.9816 -5.31351 1.77586
RightHand  0.124979 2.22451 1.74065
LeftUpLeg  -12.752 4.74577 1.41331
LeftLeg  6.67862 -9.14682 -1.30942
LeftFoot  5.81453 -0.152224 0.774339
LeftToes  3.24686e-010 -7.02549e-012 1.39809e-011
359
root  63.9862 39.211 4.17756 136.138 88.1108 133.097
RightUpLeg  -15.0175 -0.92881 -3.22148
RightLeg  8.79709 20.0712 -0.523209
RightFoot  4.03886 -0.315483 2.53949
RightToes  2.96859e-009 0 -3.6325e-017
Spine  17.8486 -0.86607 9.1633
Spine1  14.2896 3.43694 -9.40096
HEad  -32.6571 -1.0463 -2.64498
LeftShoulder1  2.13543 -5.87172 -16.0308
LeftArm  -30.9574 -77.8351 -18.9442
LeftForeArm  -14.5592 -4.33581 -4.57003
LeftHand  -0.15486 8.90102 -3.3271
RightShoulder  1.01417 3.34887 7.22514
RightArm  -33.7521 73.2545 14.5657
RightForeArm  -36.2206 -4.10198 1.29454
RightHand  0.0809921 1.62851 1.14675
LeftUpLeg  -12.8924 4.83961 1.66495
LeftLeg  6.31251 -10.2978 -1.36938
LeftFoot  6.08671 -0.104913 0.443674
LeftToes  3.24686e-010 -7.02549e-012 1.39809e-011
360
root  63.8863 39.1877 4.51 150.461 87.164 147.578
RightUpLeg  -15.1254 -1.00865 -3.12951
RightLeg  9.38362 18.9683 -0.0992068
RightFoot  3.80091 -0.232179 1.94278
RightToes  2.96859e-009 0 -3.6325e-017
Spine  18.439 -1.06584 9.36969
Spine1  14.3589 3.25119 -9.23389
HEad  -33.2849 -0.577974 -3.32902
LeftShoulder1  2.14205 -6.03744 -15.6732
LeftArm  -32.392 -78.2311 -17.5559
LeftForeArm  -15.0873 -4.50194 -4.4969
LeftHand  -0.162238 9.21533 -3.21658
RightShoulder  0.976331 3.29173 6.73901
RightArm  -35.4159 70.6024 16.111
RightForeArm  -32.4345 -0.0233975 -0.387069
RightHand  0.0337626 -1.36507 1.22404
LeftUpLeg  -12.8047 4.84624 1.92039
LeftLeg  5.77597 -11.5414 -1.29558
LeftFoot  6.51065 -0.0392241 -0.00388157
LeftToes  3.24686e-010 -7.02549e-012 1.39809e-011
361
root  63.7677 39.1443 4.87444 164.609 85.942 161.423
RightUpLeg  -15.9657 -1.0114 -2.76079
RightLeg  10.3608 17.235 0.415724
RightFoot  3.91791 -0.144323 1.27777
RightToes  2.96859e-009 0 -3.6325e-017
Spine  18.509 -1.33631 9.88256
Spine1  14.4027 2.8882 -8.82505
HEad  -33.476 -0.139401 -3.69614
LeftShoulder1  2.16144 -6.09083 -15.7583
LeftArm  -34.5162 -78.6538 -15.4395
LeftForeArm  -14.837 -5.0832 -4.44453
LeftHand  -0.140842 8.91799 -2.86962
RightShoulder  0.936254 3.31124 6.03482
RightArm  -38.5782 71.5641 11.4937
RightForeArm  -35.0306 -1.56981 -0.111635
RightHand  0.0311433 -0.259106 0.784138
LeftUpLeg  -13.527 4.98952 2.4524
LeftLeg  5.63385 -13.1484 -1.41967
LeftFoot  6.75292 0.100776 -0.889442
LeftToes  3.24686e-010 -7.02549e-012 1.39809e-011
362
root  63.6175 39.12 5.26401 166.152 84.4992 162.921
RightUpLeg  -16.4306 -2.43505 -2.82197
RightLeg  11.0088 16.917 1.34196
RightFoot  4.17007 -0.0532801 0.600467
RightToes  2.96859e-009 0 -3.6325e-017
Spine  19.0381 -1.55893 10.089
Spine1  14.1428 2.69288 -8.84179
HEad  -33.9443 -0.603461 -3.67678
LeftShoulder1  2.16491 -6.16121 -15.6189
LeftArm  -35.8928 -78.9005 -14.9185
LeftForeArm  -13.1103 -6.15723 -4.01713
LeftHand  -0.11884 8.37677 -2.67609
RightShoulder  0.897096 3.4253 5.13148
RightArm  -40.544 71.3226 8.89313
RightForeArm  -39.4419 -2.42009 -0.0523729
RightHand  -0.0371859 0.816223 -0.800803
LeftUpLeg  -13.6183 4.90197 2.58876
LeftLeg  4.63685 -14.5964 -1.27209
LeftFoot  7.39136 0.347129 -2.3766
LeftToes  3.24686e-010 -7.02549e-012 1.39809e-011
363
root  63.4506 39.104 5.6782 170.272 82.1092 166.675
RightUpLeg  -16.8479 -5.11815 -2.87113
RightLeg  10.9994 16.8545 2.36198
RightFoot  4.56326 -0.0112703 0.303903
RightToes  2.96859e-009 0 -3.6325e-017
Spine  18.9811 -1.9665 10.4695
Spine1  14.1065 2.18363 -8.63105
HEad  -35.1469 -2.16006 -3.41792
LeftShoulder1  2.133 -6.1638 -15.2497
LeftArm  -34.9323 -79.0232 -17.1465
LeftForeArm  -13.9538 -7.39359 -3.60296
LeftHand  -0.0960365 7.63485 -2.62176
RightShoulder  0.868625 3.18676 5.17387
RightArm  -42.2566 70.7774 6.08886
RightForeArm  -42.2032 -3.05179 0.0136689
RightHand  -0.10771 2.09055 -1.83495
LeftUpLeg  -14.2442 4.49764 2.58
LeftLeg  3.50731 -16.8598 -0.941175
LeftFoot  8.59131 0.575958 -3.5656
LeftToes  3.24686e-010 -7.02549e-012 1.39809e-011
364
root  63.3362 39.1125 6.10048 171.986 79.5697 168.18
RightUpLeg  -16.7973 -7.12994 -3.15612
RightLeg  10.5656 15.9607 3.11767
RightFoot  4.89515 0.0274159 0.0417081
RightToes  2.96859e-009 0 -3.6325e-017
Spine  18.8834 -2.32258 10.753
Spine1  13.7396 1.70421 -8.49486
HEad  -34.0851 -2.53389 -3.32743
LeftShoulder1  2.06269 -5.89681 -15.119
LeftArm  -29.6622 -78.5155 -24.7324
LeftForeArm  -14.2422 -9.14093 -3.02421
LeftHand  -0.10339 7.9373 -2.45962
RightShoulder  0.859756 3.23005 4.92827
RightArm  -41.8479 68.5853 7.46947
RightForeArm  -43.1363 -1.8013 -0.681313
RightHand  -0.230838 3.8085 -3.18491
LeftUpLeg  -14.1473 4.00241 2.37054
LeftLeg  1.37274 -17.8604 -0.133438
LeftFoot  9.34131 0.971847 -5.6653
LeftToes  3.24686e-010 -7.02549e-012 1.39809e-011
365
root  63.2572 39.1295 6.5271 171.996 76.9551 167.74
RightUpLeg  -17.1014 -8.19306 -3.61062
RightLeg  10.4811 14.3162 3.40709
RightFoot  5.06541 0.110199 -0.521868
RightToes  2.96859e-009 0 -3.6325e-017
Spine  18.3892 -2.2328 10.115
Spine1  12.9212 1.15142 -7.3507
HEad  -31.9184 -3.37083 -3.02647
LeftShoulder1  2.00364 -5.46297 -15.5585
LeftArm  -21.2147 -76.6537 -35.3964
LeftForeArm  -14.4637 -11.2744 -3.03836
LeftHand  -0.0436054 6.64079 -0.670028
RightShoulder  0.878836 3.18384 5.34759
RightArm  -40.2318 64.6598 12.2591
RightForeArm  -37.7529 2.68237 -2.17048
RightHand  -0.370916 4.42281 -4.67229
LeftUpLeg  -14.0811 3.62196 1.96819
LeftLeg  -0.428614 -14.0948 0.258268
LeftFoot  8.10217 1.56036 -9.39584
LeftToes  3.24686e-010 -7.02549e-012 1.39809e-011
